# xmcd
#
# Track frame offsets:
#	150
#	12475
#	22070
#	31266
#	40472
#	50120
#	58343
#	66666
#	76159
#	88280
#	98306
#	108912
#	117933
#	130117
#	137588
#	149449
#	158957
#	170024
#	182344
#	193421
#	202117
#	212440
#
# Disc length: 2951 seconds
#
# Revision: 1
# Processed by: cddbd v1.5.2PL0 Copyright (c) Steve Scherf et al.
# Submitted via: audiograbber 1.83.01
#
DISCID=480b8516
DTITLE=jack scott - crazy heart cd1
DYEAR=2011
DGENRE=Country
TTITLE0=my true love
TTITLE1=leroy
TTITLE2=with your love
TTITLE3=geraldine
TTITLE4=goodbye baby (with the chantones)
TTITLE5=save my soul (with the chantones)
TTITLE6=i never felt like this
TTITLE7=bella
TTITLE8=the way i walk
TTITLE9=midgie
TTITLE10=there comes a time
TTITLE11=baby marie
TTITLE12=what in the world's come over you?
TTITLE13=baby, baby
TTITLE14=burning bridges
TTITLE15=oh little one
TTITLE16=cool water
TTITLE17=it only happened yesterday
TTITLE18=patsy
TTITLE19=old time religion
TTITLE20=what am i living for? (U S)
TTITLE21=indiana waltz (u s)
EXTD=
EXTT0=
EXTT1=
EXTT2=
EXTT3=
EXTT4=
EXTT5=
EXTT6=
EXTT7=
EXTT8=
EXTT9=
EXTT10=
EXTT11=
EXTT12=
EXTT13=
EXTT14=
EXTT15=
EXTT16=
EXTT17=
EXTT18=
EXTT19=
EXTT20=
EXTT21=
PLAYORDER=
